<svg width="162" height="41" viewBox="0 0 162 41" fill="none" xmlns="http://www.w3.org/2000/svg">
<path d="M32.5234 31.7168V33H25.3516V31.7168L27.1094 31.2422L35.4941 9.23438H40.5918L48.9414 31.2422L50.7344 31.7168V33H40.2402V31.7168L42.9648 31.2422L40.7148 25.1426H31.6621L29.5 31.2422L32.5234 31.7168ZM36.2676 12.7852L32.3828 23.209H40.0469L36.2676 12.7852ZM58.5918 31.418L60.4023 31.8398V33H51.7188V31.8398L53.5117 31.418V9.60352L51.8242 9.18164V8.02148H58.5918V31.418ZM76.1172 31.998C75.5898 32.4199 74.8574 32.748 73.9199 32.9824C72.9941 33.2168 72.0391 33.334 71.0547 33.334C68.1133 33.334 65.9102 32.625 64.4453 31.207C62.9922 29.7891 62.2656 27.6211 62.2656 24.7031C62.2656 22.8867 62.5938 21.334 63.25 20.0449C63.918 18.7441 64.8672 17.7539 66.0977 17.0742C67.3281 16.3828 68.7578 16.0371 70.3867 16.0371C72.0273 16.0371 73.8145 16.2422 75.748 16.6523V21.5391H74.4824L73.7441 18.6387C73.3457 18.3457 72.9531 18.1406 72.5664 18.0234C72.1797 17.9062 71.6699 17.8477 71.0371 17.8477C70.3457 17.8477 69.7188 18.123 69.1562 18.6738C68.5938 19.2246 68.1543 20.0039 67.8379 21.0117C67.5332 22.0078 67.3809 23.2031 67.3809 24.5977C67.3809 26.9531 67.7441 28.6348 68.4707 29.6426C69.209 30.6504 70.375 31.1543 71.9688 31.1543C73.5859 31.1543 74.9688 30.9844 76.1172 30.6445V31.998ZM84.6953 15.1758C84.6953 15.9492 84.6602 16.8633 84.5898 17.918L85.8027 17.3027C87.4668 16.459 88.9609 16.0371 90.2852 16.0371C93.332 16.0371 94.8555 17.6602 94.8555 20.9062V31.418L96.5078 31.8398V33H88.2988V31.8398L89.7754 31.418V21.5918C89.7754 20.6074 89.5645 19.8398 89.1426 19.2891C88.7324 18.7383 88.1406 18.4629 87.3672 18.4629C86.4766 18.4629 85.5859 18.6621 84.6953 19.0605V31.418L86.207 31.8398V33H77.998V31.8398L79.6152 31.418V9.60352L77.9277 9.18164V8.02148H84.6953V15.1758ZM105.754 16.0723C107.992 16.0723 109.609 16.6699 110.605 17.8652C111.613 19.0605 112.117 20.918 112.117 23.4375V24.8789H103.451V25.1602C103.451 26.9062 103.592 28.1484 103.873 28.8867C104.154 29.625 104.611 30.1875 105.244 30.5742C105.877 30.9609 106.744 31.1543 107.846 31.1543C108.877 31.1543 110.178 30.9844 111.748 30.6445V31.998C111.104 32.3848 110.266 32.707 109.234 32.9648C108.215 33.2109 107.219 33.334 106.246 33.334C103.539 33.334 101.535 32.6309 100.234 31.2246C98.9453 29.8066 98.3008 27.6152 98.3008 24.6504C98.3008 21.7676 98.916 19.6172 100.146 18.1992C101.389 16.7812 103.258 16.0723 105.754 16.0723ZM105.561 17.8477C104.857 17.8477 104.33 18.2285 103.979 18.9902C103.639 19.752 103.469 21.0996 103.469 23.0332H107.301C107.301 21.4629 107.248 20.3613 107.143 19.7285C107.037 19.084 106.855 18.6094 106.598 18.3047C106.352 18 106.006 17.8477 105.561 17.8477ZM120.695 17.918L121.891 17.3027C123.531 16.459 125.002 16.0371 126.303 16.0371C128.271 16.0371 129.584 16.752 130.24 18.1816C132.643 16.752 134.67 16.0371 136.322 16.0371C139.299 16.0371 140.787 17.6602 140.787 20.9062V31.418L142.439 31.8398V33H134.23V31.8398L135.707 31.418V21.5918C135.707 20.6074 135.514 19.8398 135.127 19.2891C134.752 18.7383 134.178 18.4629 133.404 18.4629C132.537 18.4629 131.6 18.709 130.592 19.2012C130.709 19.6934 130.768 20.2617 130.768 20.9062V31.418L132.42 31.8398V33H124.211V31.8398L125.688 31.418V21.5918C125.688 20.6074 125.494 19.8398 125.107 19.2891C124.732 18.7383 124.158 18.4629 123.385 18.4629C122.611 18.4629 121.727 18.6914 120.73 19.1484V31.418L122.242 31.8398V33H114.033V31.8398L115.65 31.418V18.0586L114.033 17.6367V16.4766H120.449L120.695 17.918ZM151.176 33.5098L144.566 18.0586L143.406 17.6367V16.4766H151.861V17.6367L149.893 18.0938L153.777 27.2344L157.24 18.0586L155.307 17.6367V16.4766H160.703V17.6367L159.508 17.9883L152.986 34.0371C152.236 35.9473 151.58 37.3301 151.018 38.1855C150.455 39.0527 149.828 39.6973 149.137 40.1191C148.457 40.5527 147.678 40.7695 146.799 40.7695C145.85 40.7695 144.883 40.6582 143.898 40.4355V36.1816H144.953L145.709 38.3965C146.049 38.666 146.482 38.8008 147.01 38.8008C147.455 38.8008 147.848 38.6953 148.188 38.4844C148.527 38.2734 148.844 37.9688 149.137 37.5703C149.441 37.1719 149.729 36.6797 149.998 36.0938C150.268 35.5195 150.66 34.6582 151.176 33.5098Z" fill="#6B46C1"/>
<path d="M10.7268 6.00056C10.8763 6.00103 11.0258 6.00056 11.1752 6.00001C12.1173 5.99931 13.0466 6.06112 13.9749 6.22253C14.0086 6.22824 14.0422 6.23396 14.0769 6.23985C15.8154 6.53578 15.8154 6.53578 16.1678 6.93896C16.4196 7.30135 16.2901 7.79745 16.2218 8.20931C16.214 8.25778 16.2063 8.30625 16.1983 8.3562C16.1821 8.45759 16.1657 8.55895 16.149 8.66028C16.1235 8.81573 16.0986 8.97126 16.0738 9.12682C16.0579 9.22569 16.0419 9.32456 16.0259 9.42342C16.0147 9.49315 16.0147 9.49315 16.0032 9.56428C15.9961 9.60725 15.9891 9.65022 15.9818 9.69449C15.9725 9.75114 15.9725 9.75114 15.9631 9.80893C15.9444 9.90589 15.9444 9.90589 15.9002 10.0371C15.9499 10.0428 15.9499 10.0428 16.0006 10.0486C16.4276 10.1067 16.8082 10.2135 17.081 10.5637C17.3341 10.9593 17.429 11.3739 17.3265 11.8356C17.1909 12.2756 16.9476 12.6196 16.5623 12.881C16.2258 13.0489 15.8818 13.1873 15.503 13.1873C15.503 13.9381 15.503 14.6889 15.503 15.4624C15.6997 15.5274 15.6997 15.5274 15.9002 15.5936C16.8668 15.9953 17.7262 16.5819 18.4893 17.2919C18.5794 17.3754 18.6716 17.4541 18.7662 17.5324C20.7477 19.2532 21.8048 21.9325 21.9814 24.4858C22.14 27.2787 21.2834 30.0474 19.431 32.1756C19.4065 32.2039 19.3821 32.2322 19.357 32.2613C18.8861 32.8016 18.3742 33.2796 17.798 33.7069C17.7345 33.7579 17.671 33.8089 17.6077 33.8601C15.7736 35.2675 13.4192 36.0139 11.1103 35.9992C10.9793 35.9985 10.8484 35.9992 10.7174 36C8.40335 36.0025 6.00631 35.1896 4.22442 33.7086C4.1528 33.6495 4.08055 33.5911 4.00766 33.5335C3.70234 33.2914 3.42097 33.0328 3.1455 32.7581C3.12433 32.737 3.10316 32.7159 3.08135 32.6942C2.75149 32.3648 2.44218 32.0318 2.17455 31.6506C2.15333 31.6206 2.13211 31.5907 2.11025 31.5598C1.79406 31.1101 1.50381 30.6489 1.24774 30.163C1.23035 30.1305 1.21296 30.0979 1.19505 30.0643C0.663056 29.0553 0.318333 27.9618 0.144386 26.8379C0.137289 26.7926 0.130191 26.7473 0.122879 26.7007C-0.269653 24.0915 0.269584 21.3252 1.86561 19.1813C2.14357 18.8194 2.43935 18.4724 2.75002 18.1378C2.82923 18.0517 2.90461 17.9635 2.98 17.8742C3.35629 17.448 3.80426 17.0876 4.25844 16.7467C4.33636 16.688 4.41354 16.6285 4.49073 16.5688C5.07259 16.1261 5.7126 15.7869 6.36729 15.4624C6.38185 14.7116 6.39642 13.9608 6.41142 13.1873C6.30947 13.1728 6.20752 13.1584 6.10249 13.1435C5.62884 13.0324 5.20111 12.8217 4.93293 12.4052C4.71879 12.0033 4.60585 11.5838 4.72381 11.134C4.8785 10.6867 5.11378 10.364 5.54529 10.152C5.68604 10.0857 5.80169 10.0776 5.95519 10.0791C5.99102 10.0793 6.02685 10.0796 6.06377 10.0799C6.09111 10.0802 6.11845 10.0806 6.14662 10.0809C6.13127 9.99789 6.13127 9.99789 6.11561 9.91321C6.0772 9.70537 6.03889 9.49752 6.00062 9.28966C5.98413 9.20017 5.96761 9.11069 5.95105 9.02121C5.62926 7.28111 5.62926 7.28111 5.83768 6.97451C6.33633 6.37795 7.54525 6.29053 8.26781 6.17877C8.31152 6.172 8.35523 6.16523 8.40026 6.15825C8.54625 6.13684 8.69236 6.11772 8.8388 6.09947C8.86933 6.0956 8.89986 6.09172 8.93131 6.08773C9.53012 6.01371 10.1238 5.99833 10.7268 6.00056Z" fill="#D1DAE1"/>
<path d="M11.2032 22.9227C11.7715 23.0535 12.3399 23.1778 12.9143 23.2792C12.9537 23.2865 12.9931 23.2938 13.0337 23.3014C13.7818 23.4275 14.4289 23.2961 15.1582 23.1277C15.344 23.0855 15.5299 23.0437 15.7159 23.0022C15.7614 22.992 15.807 22.9818 15.8539 22.9713C16.5198 22.8248 17.2068 22.6833 17.8905 22.6706C17.9348 22.6697 17.9791 22.6689 18.0247 22.668C18.1828 22.6654 18.3408 22.6638 18.4988 22.6626C18.5755 22.6618 18.5755 22.6618 18.6537 22.6609C19.279 22.6604 19.279 22.6604 19.5127 22.7556C20.1183 23.4487 19.9927 24.808 19.9823 25.6472C19.9821 25.7022 19.9819 25.7572 19.9817 25.8139C19.9061 27.9345 18.7184 29.9277 17.2501 31.3879C17.2163 31.4231 17.1824 31.4583 17.1475 31.4946C16.4463 32.2157 15.6002 32.7528 14.6886 33.1739C14.6615 33.1868 14.6345 33.1996 14.6066 33.2129C12.6617 34.1341 10.2495 34.2511 8.21823 33.5407C8.08305 33.4914 7.94901 33.4397 7.81533 33.3865C7.78549 33.3748 7.75566 33.3631 7.72492 33.351C6.1971 32.7423 4.80173 31.6605 3.84504 30.3248C3.82719 30.3 3.80935 30.2751 3.79096 30.2495C2.9543 29.0708 2.39005 27.7167 2.15268 26.2912C2.1391 26.2103 2.12385 26.1296 2.10837 26.0491C1.93962 25.0509 1.91524 23.6492 2.42672 22.7387C2.82208 22.2229 3.88226 22.1311 4.48441 22.0502C6.75177 21.8217 9.0147 22.4187 11.2032 22.9227Z" fill="#458025"/>
<path d="M10.7268 6.00056C10.8763 6.00103 11.0258 6.00056 11.1752 6.00001C12.1173 5.99931 13.0466 6.06112 13.9749 6.22253C14.0086 6.22824 14.0422 6.23396 14.0769 6.23985C15.8154 6.53578 15.8154 6.53578 16.1678 6.93896C16.4196 7.30135 16.2901 7.79745 16.2218 8.20931C16.214 8.25778 16.2063 8.30625 16.1983 8.3562C16.1821 8.45759 16.1657 8.55895 16.149 8.66028C16.1235 8.81573 16.0986 8.97126 16.0738 9.12682C16.0579 9.22569 16.0419 9.32456 16.0259 9.42342C16.0147 9.49315 16.0147 9.49315 16.0032 9.56428C15.9962 9.60725 15.9891 9.65022 15.9818 9.69449C15.9725 9.75114 15.9725 9.75114 15.9631 9.80893C15.9444 9.90589 15.9444 9.90589 15.9002 10.0371C15.9499 10.0428 15.9499 10.0428 16.0006 10.0486C16.4276 10.1067 16.8082 10.2135 17.081 10.5637C17.3341 10.9593 17.429 11.3739 17.3265 11.8356C17.1909 12.2756 16.9476 12.6196 16.5623 12.881C16.2258 13.0489 15.8818 13.1873 15.503 13.1873C15.503 13.9381 15.503 14.6889 15.503 15.4624C15.6997 15.5274 15.6997 15.5274 15.9002 15.5936C16.8668 15.9953 17.7262 16.582 18.4893 17.2919C18.5794 17.3754 18.6716 17.4541 18.7662 17.5324C20.7477 19.2532 21.8048 21.9325 21.9814 24.4858C22.14 27.2787 21.2834 30.0474 19.431 32.1756C19.4066 32.2039 19.3821 32.2322 19.357 32.2613C18.8861 32.8016 18.3742 33.2796 17.798 33.7069C17.7345 33.7579 17.671 33.8089 17.6077 33.8601C15.7736 35.2675 13.4192 36.0139 11.1103 35.9992C10.9793 35.9985 10.8484 35.9992 10.7174 36C8.40335 36.0025 6.00631 35.1896 4.22442 33.7086C4.1528 33.6495 4.08055 33.5911 4.00766 33.5335C3.70234 33.2914 3.42097 33.0328 3.1455 32.7581C3.12433 32.737 3.10316 32.7159 3.08135 32.6942C2.75149 32.3648 2.44218 32.0318 2.17455 31.6506C2.15333 31.6206 2.13211 31.5907 2.11025 31.5598C1.79406 31.1101 1.50381 30.6489 1.24774 30.163C1.23035 30.1305 1.21296 30.0979 1.19505 30.0643C0.663056 29.0553 0.318333 27.9618 0.144386 26.8379C0.137289 26.7926 0.130191 26.7473 0.122879 26.7007C-0.269653 24.0915 0.269584 21.3252 1.86561 19.1813C2.14357 18.8194 2.43935 18.4724 2.75002 18.1378C2.82923 18.0517 2.90461 17.9635 2.98 17.8742C3.35629 17.448 3.80426 17.0876 4.25844 16.7467C4.33636 16.688 4.41354 16.6285 4.49073 16.5688C5.07259 16.1261 5.7126 15.7869 6.36729 15.4624C6.38185 14.7116 6.39642 13.9608 6.41142 13.1873C6.30947 13.1729 6.20752 13.1584 6.10249 13.1435C5.62884 13.0324 5.20111 12.8217 4.93293 12.4052C4.71879 12.0033 4.60585 11.5838 4.72381 11.134C4.8785 10.6867 5.11378 10.364 5.54529 10.152C5.68604 10.0857 5.80169 10.0776 5.95519 10.0791C5.99102 10.0793 6.02685 10.0796 6.06377 10.0799C6.09111 10.0802 6.11845 10.0806 6.14662 10.0809C6.13127 9.99789 6.13127 9.99789 6.11561 9.91321C6.0772 9.70537 6.03889 9.49752 6.00062 9.28966C5.98413 9.20017 5.96761 9.11069 5.95106 9.02121C5.62926 7.28111 5.62926 7.28111 5.83768 6.97451C6.33634 6.37795 7.54525 6.29053 8.26781 6.17877C8.31152 6.172 8.35523 6.16523 8.40026 6.15825C8.54625 6.13684 8.69236 6.11772 8.8388 6.09947C8.86933 6.0956 8.89986 6.09172 8.93132 6.08773C9.53012 6.01371 10.1238 5.99833 10.7268 6.00056ZM7.24997 13.406C7.24971 13.4368 7.24945 13.4676 7.24919 13.4993C7.24663 13.7896 7.24345 14.0799 7.23957 14.3702C7.2376 14.5194 7.23586 14.6687 7.23468 14.8179C7.23331 14.9896 7.23089 15.1613 7.22842 15.333C7.22814 15.3864 7.22786 15.4399 7.22757 15.4949C7.22626 15.5698 7.22626 15.5698 7.22492 15.6461C7.22418 15.7119 7.22418 15.7119 7.22344 15.7789C7.20289 15.9202 7.15712 16.0035 7.07344 16.1187C6.98998 16.1687 6.98998 16.1687 6.89535 16.2012C6.86002 16.214 6.8247 16.2269 6.78831 16.2401C6.75041 16.2533 6.71252 16.2664 6.67347 16.28C5.56737 16.6925 4.62384 17.3787 3.80751 18.2188C3.58684 18.4375 3.58684 18.4375 3.51219 18.5069C3.22492 18.7796 2.9874 19.0862 2.7483 19.4001C2.72047 19.4361 2.72047 19.4361 2.69207 19.4728C2.15523 20.1711 1.73457 20.9413 1.42427 21.7627C1.4039 21.8157 1.4039 21.8157 1.38311 21.8698C1.05419 22.7392 0.846889 23.6772 0.841566 24.6083C0.841253 24.6448 0.840939 24.6813 0.840616 24.719C0.824023 27.2226 1.51518 29.4973 3.10137 31.4756C3.13068 31.5123 3.13068 31.5123 3.16059 31.5498C3.67049 32.1832 4.25247 32.746 4.91087 33.2257C4.96121 33.2633 5.01155 33.3009 5.06189 33.3385C5.43419 33.6129 5.82537 33.8416 6.23489 34.057C6.28575 34.084 6.33661 34.111 6.38901 34.1388C7.14029 34.525 7.93058 34.7748 8.75053 34.9758C8.78966 34.9858 8.8288 34.9958 8.86912 35.0061C9.53023 35.1687 10.1974 35.1678 10.8745 35.1699C10.9416 35.1703 10.9416 35.1703 11.0101 35.1707C11.8387 35.1739 12.6509 35.1002 13.4563 34.8992C13.525 34.8823 13.525 34.8823 13.5951 34.8651C14.6563 34.5972 15.6491 34.1751 16.5623 33.5757C16.5942 33.5548 16.6261 33.5338 16.659 33.5123C17.5158 32.9442 18.3289 32.2557 18.9455 31.4318C18.9844 31.3809 19.0233 31.33 19.0622 31.2791C20.6901 29.1315 21.4608 26.4306 21.0819 23.7563C20.7507 21.6837 19.8051 19.7952 18.3437 18.2812C18.2899 18.2254 18.2367 18.1691 18.1835 18.1126C17.9042 17.8239 17.5894 17.5845 17.2684 17.3437C17.2274 17.3125 17.1864 17.2813 17.1441 17.2492C16.5499 16.8076 15.5709 16.1187 14.7969 16.1187C14.6695 15.7986 14.6439 15.5215 14.6419 15.1792C14.6407 15.1028 14.6407 15.1028 14.6395 15.0249C14.6371 14.8636 14.6356 14.7022 14.6342 14.5409C14.6327 14.4309 14.6312 14.321 14.6296 14.2111C14.6258 13.9428 14.6228 13.6744 14.6204 13.406C14.4194 13.4302 14.2185 13.4543 14.0175 13.4784C13.9493 13.4866 13.8811 13.4948 13.8128 13.503C13.7142 13.5148 13.6156 13.5267 13.517 13.5385C13.472 13.5439 13.472 13.5439 13.426 13.5494C13.2482 13.5708 13.2482 13.5708 13.0704 13.593C11.8102 13.7531 10.4891 13.7036 9.22497 13.6111C9.18921 13.6086 9.15344 13.606 9.11659 13.6033C8.49206 13.5573 7.87125 13.4833 7.24997 13.406Z" fill="#505242"/>
<path d="M11.2032 22.9227C11.7715 23.0535 12.3399 23.1778 12.9143 23.2792C12.9537 23.2865 12.9931 23.2938 13.0337 23.3014C13.7818 23.4275 14.4289 23.2961 15.1582 23.1277C15.344 23.0855 15.5299 23.0437 15.7159 23.0022C15.7614 22.992 15.807 22.9818 15.8539 22.9713C16.5197 22.8248 17.2068 22.6833 17.8905 22.6706C17.9348 22.6697 17.9791 22.6689 18.0247 22.668C18.1828 22.6654 18.3408 22.6638 18.4988 22.6626C18.5755 22.6618 18.5755 22.6618 18.6537 22.6609C19.279 22.6604 19.279 22.6604 19.5127 22.7556C20.1183 23.4487 19.9927 24.808 19.9823 25.6472C19.9821 25.7022 19.9819 25.7572 19.9817 25.8139C19.9061 27.9345 18.7184 29.9277 17.2501 31.3879C17.2163 31.4231 17.1824 31.4583 17.1475 31.4946C16.4463 32.2157 15.6002 32.7528 14.6886 33.1739C14.6615 33.1868 14.6345 33.1996 14.6066 33.2129C12.6617 34.1341 10.2495 34.2511 8.21823 33.5407C8.08305 33.4914 7.94901 33.4397 7.81533 33.3865C7.78549 33.3748 7.75566 33.3631 7.72492 33.351C6.1971 32.7423 4.80173 31.6605 3.84504 30.3248C3.82719 30.3 3.80935 30.2751 3.79096 30.2495C2.9543 29.0708 2.39005 27.7167 2.15268 26.2912C2.1391 26.2103 2.12385 26.1296 2.10837 26.0491C1.93962 25.0509 1.91524 23.6492 2.42672 22.7387C2.82208 22.2229 3.88225 22.1311 4.48441 22.0502C6.75177 21.8217 9.0147 22.4187 11.2032 22.9227ZM15.2735 23.8429C15.0288 23.9047 14.7831 23.961 14.5365 24.0154C14.2711 24.0743 14.0073 24.137 13.744 24.2046C12.5946 24.4989 11.4286 24.7494 10.2487 24.8818C10.194 24.8881 10.1393 24.8944 10.0829 24.9009C7.82992 25.1544 5.48289 25.0767 3.30714 24.3975C3.1456 24.3472 2.98808 24.3102 2.82045 24.2865C2.60085 25.3446 2.87361 26.5123 3.20467 27.5183C3.21422 27.5478 3.22378 27.5772 3.23362 27.6076C3.61674 28.7664 4.28388 29.8263 5.12578 30.7075C5.14757 30.7304 5.16936 30.7533 5.19181 30.7768C5.53041 31.1298 5.87881 31.4456 6.27844 31.7281C6.30199 31.7452 6.32555 31.7622 6.34981 31.7798C7.98744 32.9607 10.1707 33.4604 12.169 33.1605C12.2262 33.151 12.2834 33.1413 12.3406 33.1314C12.3877 33.1235 12.3877 33.1235 12.4358 33.1155C14.153 32.8187 15.6424 31.9206 16.8659 30.7075C16.8881 30.6856 16.9102 30.6637 16.9331 30.6411C17.6717 29.9012 18.2405 28.9473 18.6266 27.9815C18.659 27.9008 18.6926 27.8208 18.7263 27.7407C18.8587 27.4172 18.9538 27.0906 19.0325 26.7502C19.0452 26.6953 19.0452 26.6953 19.0582 26.6392C19.1764 26.0994 19.2291 25.5675 19.2274 25.0165C19.2272 24.9244 19.2283 24.8324 19.2293 24.7403C19.2313 24.2986 19.2249 23.7867 19.0004 23.3935C17.7101 23.3608 16.5227 23.5263 15.2735 23.8429Z" fill="#2C531C"/>
<path d="M10.2121 6.00054C10.3669 6.00099 10.5217 6.00054 10.6764 6.00001C11.6519 5.99934 12.6142 6.05865 13.5754 6.21354C13.6103 6.21902 13.6451 6.22451 13.681 6.23016C15.4812 6.51413 15.4812 6.51413 15.8461 6.90103C16.1067 7.24848 15.973 7.7237 15.902 8.11858C15.894 8.16499 15.886 8.21141 15.8777 8.25923C15.8524 8.40571 15.8264 8.55209 15.8004 8.69848C15.7832 8.79792 15.7659 8.89736 15.7487 8.9968C15.7172 9.17806 15.6857 9.35931 15.6535 9.54047C15.6471 9.57661 15.6407 9.61276 15.6341 9.65C15.6165 9.73943 15.5931 9.82786 15.5691 9.91603C15.2825 9.91603 14.996 9.91603 14.7008 9.91603C14.6857 9.94374 14.6706 9.97145 14.6551 10C14.6812 9.61618 14.7418 9.24223 14.815 8.8638C14.8255 8.80851 14.8359 8.75321 14.8463 8.69791C14.9227 8.29679 14.9227 8.29679 14.975 8.15269C14.9432 8.16589 14.9115 8.1791 14.8788 8.1927C12.6305 9.06181 9.4533 8.83115 7.11464 8.42821C7.06697 8.42011 7.01929 8.412 6.97017 8.40365C6.65535 8.34644 6.36187 8.26109 6.06355 8.15269C6.07324 8.19843 6.08293 8.24417 6.09292 8.29129C6.12894 8.46166 6.16464 8.63209 6.20023 8.80254C6.21565 8.87618 6.23117 8.94981 6.24677 9.02341C6.26925 9.12947 6.29139 9.23558 6.31347 9.3417C6.32047 9.37438 6.32747 9.40706 6.33468 9.44073C6.37077 9.61588 6.39105 9.77876 6.38345 9.95802C6.35329 9.94416 6.32313 9.93031 6.29205 9.91603C6.22919 9.91254 6.16615 9.91152 6.10318 9.91193C6.06636 9.91207 6.02955 9.9122 5.99161 9.91234C5.95314 9.91269 5.91467 9.91304 5.87504 9.91341C5.81681 9.91369 5.81681 9.91369 5.7574 9.91398C5.66142 9.91448 5.56544 9.91523 5.46946 9.91603C5.41896 9.66296 5.36857 9.40987 5.31828 9.15676C5.3012 9.07088 5.28409 8.98501 5.26696 8.89915C4.93374 7.22935 4.93374 7.22935 5.14956 6.93514C5.6659 6.36268 6.9177 6.27879 7.66589 6.17155C7.71115 6.16505 7.75641 6.15856 7.80304 6.15186C7.95421 6.13131 8.10551 6.11297 8.25713 6.09545C8.28875 6.09173 8.32036 6.08801 8.35293 6.08418C8.97298 6.01315 9.5877 5.9984 10.2121 6.00054Z" fill="#473E25"/>
<path d="M7 9C7.15813 9.02105 7.30973 9.05124 7.4641 9.08363C9.65546 9.52037 12.5365 9.5515 14.7128 9.05947C14.8084 9.03936 14.9042 9.01969 15 9C14.9381 9.35279 14.862 9.70351 14.7722 10.0531C14.7617 10.0942 14.7514 10.1354 14.7414 10.1766C14.727 10.2351 14.7116 10.2936 14.6963 10.352C14.6876 10.3859 14.679 10.4197 14.67 10.4546C14.6258 10.5577 14.5686 10.6169 14.4667 10.6949C14.1754 10.7998 13.8229 10.8331 13.5051 10.877C13.4718 10.8817 13.4384 10.8865 13.404 10.8913C12.6533 10.9888 11.8939 11.0025 11.1333 10.9997C11.0895 10.9996 11.0456 10.9995 11.0004 10.9994C10.3479 10.998 9.69971 10.9902 9.05128 10.9328C9.01599 10.9297 8.98069 10.9267 8.94433 10.9236C8.58562 10.8915 8.23566 10.8427 7.88718 10.7729C7.84434 10.7647 7.84434 10.7647 7.80063 10.7563C7.60453 10.714 7.49724 10.661 7.36923 10.5462C7.32327 10.4557 7.30105 10.3639 7.27885 10.269C7.27195 10.2422 7.26505 10.2154 7.25795 10.1877C7.23617 10.1023 7.21553 10.0167 7.19487 9.93108C7.18041 9.87409 7.16588 9.81712 7.15128 9.76016C7.08739 9.50704 7.03083 9.25652 7 9Z" fill="#D49A49"/>
<path d="M5.80337 10.0284C5.88336 10.1267 5.88336 10.1267 5.96259 10.2536C6.51935 11.1291 7.7677 11.1817 8.58844 11.2927C9.11387 11.3585 9.63725 11.3835 10.165 11.3868C10.2176 11.3871 10.2176 11.3871 10.2713 11.3875C10.4576 11.3888 10.644 11.3897 10.8303 11.3902C10.9804 11.3908 11.1305 11.392 11.2806 11.394C13.7025 11.5057 13.7025 11.5057 15.8978 10.5171C15.9566 10.4298 16.0137 10.3407 16.069 10.2498C16.2033 10.0365 16.2033 10.0365 16.3426 10C16.5423 10.0163 16.6479 10.0709 16.8081 10.2269C16.9964 10.546 17.0252 10.7707 16.9831 11.163C16.9256 11.4696 16.8024 11.603 16.6063 11.7705C14.0625 13.5919 9.21661 13.0752 6.47633 12.2274C6.42799 12.2128 6.42799 12.2128 6.37867 12.1978C5.43529 11.9055 5.43529 11.9055 5.14843 11.418C5.04188 11.1841 4.98827 10.9848 5.00216 10.7134C5.06433 10.4515 5.21254 10.2678 5.37075 10.0895C5.52902 9.98892 5.628 9.99551 5.80337 10.0284Z" fill="#D1DAE1"/>
<path d="M10.2367 23.8357C10.2914 23.8513 10.2914 23.8513 10.3471 23.8671C10.6757 23.9606 11.0038 24.0565 11.3316 24.1544C11.5539 24.2197 11.7769 24.2811 12 24.3425C11.9861 24.3759 11.9723 24.4094 11.958 24.4438C11.8393 24.48 11.8393 24.48 11.6776 24.5131C11.6334 24.5222 11.6334 24.5222 11.5883 24.5315C11.4895 24.5515 11.3905 24.5706 11.2915 24.5895C11.24 24.5994 11.24 24.5994 11.1874 24.6096C9.45274 24.94 7.60527 25.1803 5.86155 24.8219C5.73225 24.7961 5.6027 24.774 5.47287 24.7522C3.48417 24.4134 3.48417 24.4134 3.01574 23.8864C2.99475 23.7312 2.99475 23.7312 3.01574 23.5824C3.28098 23.1934 3.88568 23.1927 4.27522 23.1263C4.32119 23.1181 4.32119 23.1181 4.36808 23.1098C6.368 22.7678 8.29917 23.2848 10.2367 23.8357Z" fill="#468225"/>
<path d="M12.3474 7.05852C12.3993 7.06157 12.3993 7.06157 12.4523 7.0647C13.1045 7.10415 13.7455 7.18169 14.3816 7.30838C14.4186 7.31533 14.4556 7.32227 14.4937 7.32943C14.683 7.36664 14.8387 7.40515 15 7.49958C14.9801 7.56354 14.9801 7.56354 14.9158 7.63864C14.7954 7.67584 14.6848 7.70344 14.5605 7.72772C14.5248 7.73504 14.489 7.74236 14.4521 7.7499C13.4267 7.95308 12.3857 7.9987 11.3346 7.99725C11.1698 7.99714 11.0051 7.99796 10.8403 7.99884C7.87912 8.00487 7.87912 8.00487 7 7.53434C7.01389 7.49993 7.02779 7.46551 7.04211 7.43005C7.13615 7.39536 7.22286 7.36934 7.32105 7.34532C7.35099 7.33791 7.38092 7.33049 7.41176 7.32286C8.99833 6.94847 10.7159 6.96033 12.3474 7.05852Z" fill="#D59E49"/>
<path d="M8.27626 18.2002C8.61177 18.4299 8.85901 18.6364 8.96699 19.036C9.01201 19.4564 9.04689 19.9131 8.81786 20.286C8.49688 20.676 8.17798 20.9446 7.66411 20.9995C7.18265 21.0053 6.86334 20.9675 6.50024 20.6422C6.18608 20.3145 6.02877 19.9609 6 19.5072C6.02109 19.0638 6.25979 18.6881 6.557 18.3723C7.02977 17.9562 7.73014 17.8746 8.27626 18.2002Z" fill="#2B521D"/>
<path d="M13.4272 30.085C13.6872 30.2337 13.8914 30.4663 13.9827 30.7464C14.0208 31.0598 14.0097 31.3441 13.8075 31.5999C13.5535 31.866 13.3339 31.9834 12.9593 32C12.6807 31.9934 12.4809 31.9338 12.2859 31.735C12.0356 31.4281 11.9687 31.1346 12.0125 30.7464C12.0945 30.4431 12.3298 30.2449 12.5816 30.0637C12.8464 29.9776 13.1694 29.9732 13.4272 30.085Z" fill="#79A72F"/>
<path d="M9.37282 15.0509C9.63243 15.1614 9.7889 15.3491 9.93154 15.5836C10.0257 15.8591 10.0283 16.1734 9.90456 16.4406C9.76763 16.6713 9.57202 16.8261 9.33797 16.9583C9.0298 17.0299 8.76409 17.0162 8.48564 16.8627C8.24352 16.6931 8.07084 16.4803 8.01291 16.192C7.97738 15.8708 8.00711 15.6153 8.20477 15.3496C8.53232 15.0138 8.9138 14.9334 9.37282 15.0509Z" fill="#2A501C"/>
<path d="M16.4198 25.1098C16.6663 25.3235 16.8357 25.574 16.9533 25.9579C17.0317 26.4408 17.022 26.8986 16.8424 27.3291C16.6442 27.6399 16.4239 27.9353 16.1272 27.9988C15.7894 28.0107 15.573 27.9387 15.315 27.615C15.0409 27.186 14.9943 26.8537 15.0005 26.2764C15.0356 25.8422 15.1764 25.5912 15.392 25.3013C15.7057 24.998 16.0566 24.9043 16.4198 25.1098Z" fill="#A4C539"/>
<path d="M9.33605 29.0367C9.59785 29.1659 9.77135 29.3065 9.9244 29.5531C10.035 29.8808 10.0266 30.1548 9.88354 30.469C9.7417 30.7195 9.60712 30.8544 9.33605 30.9733C9.01083 31.0236 8.76174 31.0097 8.46169 30.8725C8.1862 30.6199 8.01688 30.38 8 30.001C8.04089 29.6376 8.147 29.4477 8.38815 29.1739C8.66864 28.9599 9.00007 28.9829 9.33605 29.0367Z" fill="#A4C538"/>
<path d="M6.5413 26.0881C6.79219 26.2878 6.94777 26.4591 6.99669 26.7764C7.01278 27.1666 6.97893 27.4181 6.69569 27.7188C6.42102 27.9494 6.17454 28.0043 5.80795 27.9997C5.52316 27.9621 5.33305 27.7992 5.14295 27.6041C4.95023 27.3019 4.98896 26.9429 5.04887 26.6043C5.19485 26.3513 5.37273 26.1316 5.66562 26.0348C5.97992 25.9881 6.24752 25.9732 6.5413 26.0881Z" fill="#84AF31"/>
<path d="M10.675 21.0098C10.7988 21.0784 10.8824 21.1367 10.9667 21.2554C11.0147 21.4348 11.0131 21.5869 10.9469 21.7597C10.8195 21.923 10.6921 21.974 10.4969 22C10.2918 21.9726 10.1778 21.8827 10.0445 21.7175C9.98597 21.5556 9.9852 21.4266 10.042 21.2633C10.2162 21.0432 10.4108 20.9715 10.675 21.0098Z" fill="#294D1C"/>
</svg>
