<svg width="142" height="39" viewBox="0 0 142 39" fill="none" xmlns="http://www.w3.org/2000/svg">
<path d="M18.48 29.62H20.07L26.88 10.06H29.73L36.51 29.62H38.1V31H31.02V29.62H33.72L31.86 24.19H23.7L21.84 29.62H24.54V31H18.48V29.62ZM24.12 22.75H31.41L27.9 12.25H27.72L24.12 22.75ZM39.3234 29.62H41.5434V10.51L39.3234 10.12V9.07L44.0034 8.2V29.62H46.2234V31H39.3234V29.62ZM55.6676 31.36C54.5476 31.36 53.5476 31.17 52.6676 30.79C51.8076 30.39 51.0776 29.84 50.4776 29.14C49.8776 28.42 49.4176 27.57 49.0976 26.59C48.7776 25.59 48.6176 24.48 48.6176 23.26C48.6176 22.02 48.7876 20.9 49.1276 19.9C49.4876 18.9 49.9876 18.05 50.6276 17.35C51.2676 16.65 52.0276 16.11 52.9076 15.73C53.8076 15.35 54.7976 15.16 55.8776 15.16C57.4976 15.16 58.7776 15.51 59.7176 16.21C60.6776 16.89 61.1576 17.76 61.1576 18.82C61.1576 19.46 60.9876 19.96 60.6476 20.32C60.3276 20.68 59.8776 20.86 59.2976 20.86C58.6776 20.86 58.2176 20.68 57.9176 20.32C57.6176 19.96 57.4676 19.53 57.4676 19.03C57.4676 18.59 57.5776 18.21 57.7976 17.89C58.0176 17.57 58.3276 17.32 58.7276 17.14V17.05C58.4676 16.89 58.1276 16.77 57.7076 16.69C57.3076 16.61 56.7876 16.57 56.1476 16.57C55.4476 16.57 54.7976 16.7 54.1976 16.96C53.6176 17.22 53.1176 17.59 52.6976 18.07C52.2776 18.53 51.9476 19.08 51.7076 19.72C51.4676 20.34 51.3476 21.02 51.3476 21.76V23.98C51.3476 24.8 51.4576 25.55 51.6776 26.23C51.8976 26.89 52.2076 27.46 52.6076 27.94C53.0276 28.42 53.5176 28.79 54.0776 29.05C54.6576 29.31 55.3076 29.44 56.0276 29.44C57.2476 29.44 58.2076 29.19 58.9076 28.69C59.6076 28.17 60.1676 27.5 60.5876 26.68L61.5476 27.31C61.3676 27.83 61.1076 28.34 60.7676 28.84C60.4276 29.32 60.0176 29.75 59.5376 30.13C59.0576 30.49 58.4876 30.78 57.8276 31C57.1876 31.24 56.4676 31.36 55.6676 31.36ZM63.7863 29.62H66.0063V10.51L63.7863 10.12V9.07L68.4663 8.2V17.83H68.5863C68.7063 17.53 68.8863 17.22 69.1263 16.9C69.3663 16.58 69.6663 16.29 70.0263 16.03C70.4063 15.77 70.8363 15.56 71.3163 15.4C71.8163 15.24 72.3763 15.16 72.9963 15.16C74.8563 15.16 76.1863 15.65 76.9863 16.63C77.7863 17.59 78.1863 19.04 78.1863 20.98V29.62H80.4063V31H73.5063V29.62H75.7263V21.19C75.7263 19.73 75.4363 18.65 74.8563 17.95C74.2763 17.23 73.3563 16.87 72.0963 16.87C71.6563 16.87 71.2163 16.93 70.7763 17.05C70.3563 17.17 69.9663 17.36 69.6063 17.62C69.2663 17.88 68.9863 18.2 68.7663 18.58C68.5663 18.96 68.4663 19.41 68.4663 19.93V29.62H70.6863V31H63.7863V29.62ZM89.827 31.36C88.727 31.36 87.737 31.17 86.857 30.79C85.997 30.39 85.267 29.84 84.667 29.14C84.067 28.44 83.607 27.59 83.287 26.59C82.967 25.59 82.807 24.48 82.807 23.26C82.807 22.06 82.977 20.97 83.317 19.99C83.677 18.99 84.157 18.13 84.757 17.41C85.377 16.69 86.107 16.14 86.947 15.76C87.787 15.36 88.707 15.16 89.707 15.16C90.727 15.16 91.637 15.34 92.437 15.7C93.237 16.06 93.907 16.57 94.447 17.23C95.007 17.87 95.437 18.64 95.737 19.54C96.037 20.44 96.187 21.42 96.187 22.48V23.17H85.537V23.95C85.537 25.65 85.957 26.99 86.797 27.97C87.657 28.95 88.797 29.44 90.217 29.44C91.457 29.44 92.437 29.19 93.157 28.69C93.897 28.17 94.477 27.5 94.897 26.68L95.887 27.31C95.687 27.83 95.407 28.34 95.047 28.84C94.707 29.32 94.287 29.75 93.787 30.13C93.287 30.49 92.707 30.78 92.047 31C91.387 31.24 90.647 31.36 89.827 31.36ZM85.537 21.79H93.607V21.49C93.607 20.79 93.527 20.14 93.367 19.54C93.227 18.94 92.997 18.42 92.677 17.98C92.357 17.54 91.947 17.2 91.447 16.96C90.967 16.7 90.387 16.57 89.707 16.57C89.027 16.57 88.427 16.69 87.907 16.93C87.387 17.17 86.947 17.51 86.587 17.95C86.247 18.39 85.987 18.91 85.807 19.51C85.627 20.09 85.537 20.73 85.537 21.43V21.79ZM99.041 29.62H101.261V17.47L99.041 17.08V16.06L103.661 15.16V17.86H103.781C103.901 17.54 104.081 17.22 104.321 16.9C104.561 16.58 104.861 16.29 105.221 16.03C105.601 15.77 106.031 15.56 106.511 15.4C106.991 15.24 107.531 15.16 108.131 15.16C109.451 15.16 110.501 15.41 111.281 15.91C112.061 16.41 112.601 17.18 112.901 18.22H112.991C113.151 17.86 113.361 17.5 113.621 17.14C113.881 16.78 114.201 16.45 114.581 16.15C114.961 15.85 115.401 15.61 115.901 15.43C116.421 15.25 117.021 15.16 117.701 15.16C119.561 15.16 120.881 15.65 121.661 16.63C122.461 17.61 122.861 19.07 122.861 21.01V29.62H125.081V31H118.181V29.62H120.401V21.19C120.401 18.31 119.211 16.87 116.831 16.87C116.391 16.87 115.951 16.94 115.511 17.08C115.091 17.2 114.711 17.39 114.371 17.65C114.051 17.89 113.791 18.21 113.591 18.61C113.391 18.99 113.291 19.44 113.291 19.96V29.62H115.511V31H108.611V29.62H110.831V21.19C110.831 18.31 109.651 16.87 107.291 16.87C106.831 16.87 106.391 16.94 105.971 17.08C105.551 17.2 105.171 17.39 104.831 17.65C104.491 17.89 104.221 18.21 104.021 18.61C103.821 18.99 103.721 19.44 103.721 19.96V29.62H105.941V31H99.041V29.62ZM129.444 37.36C128.424 37.36 127.684 37.14 127.224 36.7C126.764 36.28 126.534 35.72 126.534 35.02C126.534 34.5 126.674 34.08 126.954 33.76C127.234 33.44 127.634 33.28 128.154 33.28C128.614 33.28 128.964 33.41 129.204 33.67C129.464 33.95 129.594 34.32 129.594 34.78C129.594 35.12 129.504 35.39 129.324 35.59C129.164 35.81 128.984 35.95 128.784 36.01V36.1C129.004 36.18 129.264 36.22 129.564 36.22C130.084 36.22 130.594 35.99 131.094 35.53C131.594 35.09 132.044 34.36 132.444 33.34L133.074 31.63L127.374 16.9H125.814V15.52H132.234V16.9H130.074L134.244 28.24H134.364L138.414 16.9H136.254V15.52H141.714V16.9H140.154L133.734 33.58C133.314 34.68 132.744 35.58 132.024 36.28C131.324 37 130.464 37.36 129.444 37.36Z" fill="#CED0DD"/>
<path d="M7.15122 9.00037C7.25087 9.00069 7.35051 9.00038 7.45016 9C8.07819 8.99954 8.69776 9.04074 9.3166 9.14835C9.33904 9.15216 9.36148 9.15597 9.3846 9.1599C10.5436 9.35719 10.5436 9.35719 10.7785 9.62598C10.9464 9.86757 10.8601 10.1983 10.8145 10.4729C10.8094 10.5052 10.8042 10.5375 10.7989 10.5708C10.7881 10.6384 10.7771 10.706 10.766 10.7735C10.749 10.8772 10.7324 10.9808 10.7158 11.0845C10.7052 11.1505 10.6946 11.2164 10.684 11.2823C10.6765 11.3288 10.6765 11.3288 10.6688 11.3762C10.6641 11.4048 10.6594 11.4335 10.6545 11.463C10.6484 11.5008 10.6484 11.5008 10.6421 11.5393C10.6296 11.6039 10.6296 11.6039 10.6002 11.6914C10.6333 11.6952 10.6333 11.6952 10.6671 11.6991C10.9517 11.7378 11.2054 11.809 11.3873 12.0425C11.5561 12.3062 11.6193 12.5826 11.551 12.8904C11.4606 13.1837 11.2984 13.413 11.0415 13.5873C10.8172 13.6993 10.5878 13.7915 10.3354 13.7915C10.3354 14.292 10.3354 14.7926 10.3354 15.3083C10.4664 15.3516 10.4664 15.3516 10.6002 15.3958C11.2445 15.6635 11.8174 16.0546 12.3262 16.528C12.3863 16.5836 12.4477 16.6361 12.5108 16.6883C13.8318 17.8355 14.5366 19.6217 14.6543 21.3239C14.76 23.1858 14.189 25.0316 12.954 26.4504C12.9377 26.4693 12.9214 26.4881 12.9046 26.5075C12.5907 26.8677 12.2495 27.1864 11.8653 27.4713C11.823 27.5053 11.7807 27.5393 11.7385 27.5734C10.5157 28.5117 8.94612 29.0092 7.40687 28.9994C7.31955 28.999 7.23227 28.9994 7.14495 29C5.60223 29.0017 4.00421 28.4597 2.81628 27.4724C2.76853 27.433 2.72036 27.394 2.67177 27.3556C2.46823 27.1943 2.28065 27.0219 2.097 26.8387C2.08289 26.8247 2.06878 26.8106 2.05423 26.7961C1.83433 26.5766 1.62812 26.3546 1.4497 26.1004C1.43556 26.0804 1.42141 26.0605 1.40683 26.0399C1.19604 25.74 1.00254 25.4326 0.831825 25.1087C0.820233 25.087 0.808642 25.0653 0.796699 25.0429C0.442037 24.3702 0.212222 23.6412 0.0962572 22.8919C0.0915257 22.8617 0.0867943 22.8315 0.0819194 22.8004C-0.179769 21.061 0.179723 19.2168 1.24374 17.7875C1.42905 17.5463 1.62623 17.3149 1.83335 17.0918C1.88615 17.0345 1.93641 16.9757 1.98667 16.9161C2.23753 16.632 2.53617 16.3917 2.83896 16.1645C2.89091 16.1253 2.94236 16.0856 2.99382 16.0459C3.38173 15.7507 3.8084 15.5246 4.24486 15.3083C4.25457 14.8077 4.26428 14.3072 4.27428 13.7915C4.20632 13.7819 4.13835 13.7723 4.06832 13.7624C3.75256 13.6883 3.46741 13.5478 3.28862 13.2701C3.14586 13.0022 3.07057 12.7225 3.14921 12.4227C3.25233 12.1245 3.40919 11.9093 3.69686 11.768C3.79069 11.7238 3.86779 11.7184 3.97013 11.7194C3.99402 11.7196 4.0179 11.7197 4.04251 11.7199C4.06074 11.7201 4.07897 11.7204 4.09775 11.7206C4.08751 11.6653 4.08751 11.6653 4.07707 11.6088C4.05147 11.4702 4.02593 11.3317 4.00041 11.1931C3.98942 11.1334 3.9784 11.0738 3.96737 11.0141C3.75284 9.85407 3.75284 9.85407 3.89179 9.64967C4.22422 9.25197 5.03017 9.19369 5.51188 9.11918C5.54101 9.11467 5.57015 9.11015 5.60017 9.1055C5.6975 9.09123 5.79491 9.07848 5.89253 9.06632C5.91289 9.06373 5.93324 9.06115 5.95421 9.05848C6.35342 9.00914 6.74919 8.99889 7.15122 9.00037Z" fill="#D1DAE1"/>
<path d="M7.46887 20.2819C7.84769 20.3691 8.22665 20.4519 8.60955 20.5196C8.63583 20.5244 8.66211 20.5293 8.68918 20.5343C9.18793 20.6184 9.6193 20.5308 10.1055 20.4186C10.2294 20.3904 10.3533 20.3625 10.4773 20.3349C10.5077 20.3281 10.538 20.3213 10.5693 20.3143C11.0132 20.2166 11.4712 20.1223 11.927 20.1138C11.9566 20.1132 11.9861 20.1127 12.0165 20.1121C12.1219 20.1103 12.2272 20.1093 12.3326 20.1085C12.3837 20.1079 12.3837 20.1079 12.4358 20.1074C12.8527 20.107 12.8527 20.107 13.0085 20.1705C13.4123 20.6325 13.3285 21.5387 13.3216 22.0982C13.3215 22.1349 13.3213 22.1716 13.3212 22.2093C13.2708 23.6231 12.479 24.9519 11.5001 25.9254C11.4775 25.9488 11.455 25.9723 11.4317 25.9965C10.9642 26.4772 10.4002 26.8353 9.79246 27.116C9.7744 27.1246 9.75635 27.1332 9.73775 27.142C8.44115 27.7561 6.83306 27.8341 5.47886 27.3605C5.38874 27.3277 5.29938 27.2932 5.21026 27.2578C5.19037 27.2499 5.17048 27.2421 5.14999 27.2341C4.13144 26.8283 3.2012 26.107 2.5634 25.2166C2.5515 25.2001 2.53961 25.1835 2.52735 25.1664C1.96957 24.3806 1.59341 23.4779 1.43516 22.5275C1.42611 22.4736 1.41594 22.4198 1.40562 22.3661C1.29312 21.7007 1.27687 20.7662 1.61785 20.1592C1.88143 19.8153 2.58821 19.7542 2.98964 19.7002C4.50122 19.5479 6.00984 19.9458 7.46887 20.2819Z" fill="#458025"/>
<path d="M7.15122 9.00037C7.25087 9.00069 7.35051 9.00038 7.45015 9C8.07819 8.99954 8.69776 9.04074 9.3166 9.14835C9.33904 9.15216 9.36148 9.15597 9.3846 9.1599C10.5436 9.35719 10.5436 9.35719 10.7785 9.62598C10.9464 9.86757 10.8601 10.1983 10.8145 10.4729C10.8094 10.5052 10.8042 10.5375 10.7989 10.5708C10.7881 10.6384 10.7771 10.706 10.766 10.7735C10.749 10.8772 10.7324 10.9808 10.7158 11.0845C10.7052 11.1505 10.6946 11.2164 10.684 11.2823C10.6765 11.3288 10.6765 11.3288 10.6688 11.3762C10.6641 11.4048 10.6594 11.4335 10.6545 11.463C10.6484 11.5008 10.6484 11.5008 10.6421 11.5393C10.6296 11.6039 10.6296 11.6039 10.6002 11.6914C10.6333 11.6952 10.6333 11.6952 10.6671 11.6991C10.9517 11.7378 11.2054 11.809 11.3873 12.0425C11.5561 12.3062 11.6193 12.5826 11.551 12.8904C11.4606 13.1837 11.2984 13.413 11.0415 13.5873C10.8172 13.6993 10.5878 13.7915 10.3354 13.7915C10.3354 14.292 10.3354 14.7926 10.3354 15.3083C10.4664 15.3516 10.4664 15.3516 10.6002 15.3958C11.2445 15.6635 11.8174 16.0546 12.3262 16.528C12.3863 16.5836 12.4477 16.6361 12.5108 16.6883C13.8318 17.8355 14.5366 19.6217 14.6543 21.3239C14.76 23.1858 14.189 25.0316 12.954 26.4504C12.9377 26.4693 12.9214 26.4881 12.9046 26.5075C12.5907 26.8677 12.2495 27.1864 11.8653 27.4713C11.823 27.5053 11.7807 27.5393 11.7385 27.5734C10.5157 28.5117 8.94612 29.0092 7.40687 28.9994C7.31955 28.999 7.23227 28.9994 7.14495 29C5.60223 29.0017 4.00421 28.4597 2.81628 27.4724C2.76853 27.433 2.72036 27.394 2.67177 27.3556C2.46823 27.1943 2.28065 27.0219 2.097 26.8387C2.08289 26.8247 2.06878 26.8106 2.05423 26.7961C1.83433 26.5766 1.62812 26.3546 1.4497 26.1004C1.43556 26.0804 1.42141 26.0605 1.40683 26.0399C1.19604 25.74 1.00254 25.4326 0.831825 25.1087C0.820233 25.087 0.808642 25.0653 0.796699 25.0429C0.442037 24.3702 0.212222 23.6412 0.0962572 22.8919C0.0915257 22.8617 0.0867943 22.8315 0.0819194 22.8004C-0.179769 21.061 0.179723 19.2168 1.24374 17.7875C1.42905 17.5463 1.62623 17.3149 1.83335 17.0918C1.88615 17.0345 1.93641 16.9757 1.98667 16.9161C2.23753 16.632 2.53617 16.3917 2.83896 16.1645C2.89091 16.1253 2.94236 16.0856 2.99382 16.0459C3.38173 15.7507 3.8084 15.5246 4.24486 15.3083C4.25457 14.8077 4.26428 14.3072 4.27428 13.7915C4.20632 13.7819 4.13835 13.7723 4.06832 13.7624C3.75256 13.6883 3.46741 13.5478 3.28862 13.2701C3.14586 13.0022 3.07057 12.7225 3.14921 12.4227C3.25233 12.1245 3.40919 11.9093 3.69686 11.768C3.79069 11.7238 3.86779 11.7184 3.97013 11.7194C3.99401 11.7196 4.0179 11.7197 4.04251 11.7199C4.06074 11.7201 4.07897 11.7204 4.09775 11.7206C4.08751 11.6653 4.08751 11.6653 4.07707 11.6088C4.05147 11.4702 4.02593 11.3317 4.00041 11.1931C3.98942 11.1334 3.9784 11.0738 3.96737 11.0141C3.75284 9.85407 3.75284 9.85407 3.89179 9.64967C4.22422 9.25197 5.03017 9.19369 5.51188 9.11918C5.54101 9.11467 5.57015 9.11015 5.60017 9.1055C5.6975 9.09123 5.79491 9.07848 5.89253 9.06632C5.91289 9.06373 5.93324 9.06115 5.95421 9.05848C6.35342 9.00914 6.74919 8.99889 7.15122 9.00037ZM4.83331 13.9374C4.83314 13.9579 4.83297 13.9784 4.83279 13.9995C4.83109 14.193 4.82896 14.3866 4.82638 14.5801C4.82506 14.6796 4.82391 14.7791 4.82312 14.8786C4.82221 14.9931 4.8206 15.1075 4.81895 15.222C4.81876 15.2576 4.81857 15.2932 4.81838 15.3299C4.8175 15.3798 4.8175 15.3798 4.81661 15.4308C4.81612 15.4746 4.81612 15.4746 4.81562 15.5193C4.80193 15.6135 4.77141 15.669 4.71562 15.7458C4.65999 15.7791 4.65999 15.7791 4.5969 15.8008C4.57335 15.8094 4.5498 15.8179 4.52554 15.8267C4.50028 15.8355 4.47501 15.8443 4.44898 15.8533C3.71158 16.1283 3.08256 16.5858 2.53834 17.1458C2.39123 17.2917 2.39123 17.2917 2.34146 17.3379C2.14995 17.5197 1.9916 17.7242 1.8322 17.9334C1.81364 17.9574 1.81364 17.9574 1.79472 17.9819C1.43682 18.4474 1.15638 18.9609 0.949516 19.5084C0.935933 19.5438 0.935933 19.5438 0.922076 19.5799C0.702793 20.1595 0.564593 20.7848 0.561044 21.4055C0.560835 21.4299 0.560626 21.4542 0.560411 21.4793C0.549348 23.1484 1.01012 24.6649 2.06758 25.9837C2.08712 26.0082 2.08712 26.0082 2.10706 26.0332C2.44699 26.4555 2.83498 26.8307 3.27391 27.1505C3.30748 27.1755 3.34104 27.2006 3.37459 27.2256C3.62279 27.4086 3.88358 27.5611 4.15659 27.7046C4.1905 27.7227 4.22441 27.7407 4.25934 27.7592C4.76019 28.0166 5.28705 28.1832 5.83369 28.3172C5.85978 28.3238 5.88587 28.3305 5.91275 28.3374C6.35348 28.4458 6.79825 28.4452 7.24965 28.4466C7.2944 28.4469 7.2944 28.4469 7.34005 28.4472C7.8925 28.4493 8.43394 28.4001 8.97088 28.2661C9.01669 28.2549 9.01669 28.2549 9.06343 28.2434C9.77083 28.0648 10.4327 27.7834 11.0415 27.3838C11.0628 27.3698 11.0841 27.3559 11.106 27.3415C11.6772 26.9628 12.2193 26.5038 12.6303 25.9546C12.6563 25.9206 12.6822 25.8867 12.7081 25.8527C13.7934 24.421 14.3072 22.6204 14.0546 20.8376C13.8338 19.4558 13.2034 18.1968 12.2292 17.1875C12.1933 17.1503 12.1578 17.1127 12.1223 17.0751C11.9361 16.8826 11.7263 16.723 11.5123 16.5625C11.4849 16.5417 11.4576 16.5209 11.4294 16.4995C11.0333 16.2051 10.3806 15.7458 9.8646 15.7458C9.77967 15.5324 9.7626 15.3477 9.76127 15.1195C9.76048 15.0686 9.76048 15.0686 9.75967 15.0166C9.75809 14.909 9.75709 14.8015 9.7561 14.6939C9.75513 14.6206 9.75411 14.5473 9.75306 14.4741C9.75057 14.2952 9.74855 14.1163 9.74691 13.9374C9.61294 13.9534 9.47897 13.9695 9.345 13.9856C9.29952 13.9911 9.25403 13.9965 9.20855 14.002C9.14281 14.0099 9.07708 14.0178 9.01134 14.0257C8.9813 14.0293 8.9813 14.0293 8.95066 14.0329C8.83211 14.0472 8.83211 14.0472 8.71362 14.062C7.87343 14.1688 6.99271 14.1358 6.14998 14.0741C6.12614 14.0724 6.10229 14.0707 6.07773 14.0689C5.66138 14.0382 5.2475 13.9889 4.83331 13.9374Z" fill="#505242"/>
<path d="M7.46887 20.2819C7.84769 20.3691 8.22665 20.4519 8.60955 20.5196C8.63583 20.5244 8.66211 20.5293 8.68918 20.5343C9.18793 20.6184 9.6193 20.5308 10.1055 20.4186C10.2294 20.3904 10.3533 20.3625 10.4773 20.3349C10.5077 20.3281 10.538 20.3213 10.5693 20.3143C11.0132 20.2166 11.4712 20.1223 11.927 20.1138C11.9566 20.1132 11.9861 20.1127 12.0165 20.1121C12.1219 20.1103 12.2272 20.1093 12.3326 20.1085C12.3837 20.1079 12.3837 20.1079 12.4358 20.1074C12.8527 20.107 12.8527 20.107 13.0085 20.1705C13.4123 20.6325 13.3285 21.5387 13.3216 22.0982C13.3215 22.1349 13.3213 22.1716 13.3212 22.2093C13.2708 23.6231 12.479 24.9519 11.5001 25.9254C11.4775 25.9488 11.455 25.9723 11.4317 25.9965C10.9642 26.4772 10.4002 26.8353 9.79246 27.116C9.7744 27.1246 9.75635 27.1332 9.73775 27.142C8.44115 27.7561 6.83306 27.8341 5.47886 27.3605C5.38874 27.3277 5.29938 27.2932 5.21026 27.2578C5.19037 27.2499 5.17048 27.2421 5.14999 27.2341C4.13144 26.8283 3.2012 26.107 2.5634 25.2166C2.5515 25.2001 2.53961 25.1835 2.52735 25.1664C1.96957 24.3806 1.59341 23.4779 1.43516 22.5275C1.42611 22.4736 1.41594 22.4198 1.40562 22.3661C1.29312 21.7007 1.27687 20.7662 1.61785 20.1592C1.88143 19.8153 2.58821 19.7542 2.98964 19.7002C4.50122 19.5479 6.00984 19.9458 7.46887 20.2819ZM10.1824 20.8953C10.0192 20.9366 9.85541 20.9741 9.69107 21.0104C9.51413 21.0496 9.33821 21.0914 9.16268 21.1365C8.39647 21.3327 7.61913 21.4997 6.83253 21.588C6.79604 21.5922 6.75955 21.5964 6.72195 21.6007C5.21998 21.7697 3.6553 21.7179 2.2048 21.2651C2.09711 21.2315 1.99209 21.2069 1.88034 21.1911C1.73394 21.8965 1.91578 22.6749 2.13649 23.3456C2.14286 23.3653 2.14923 23.3849 2.15579 23.4052C2.4112 24.1777 2.85596 24.8843 3.41722 25.4718C3.43175 25.487 3.44628 25.5023 3.46125 25.518C3.68698 25.7533 3.91925 25.9638 4.18567 26.1522C4.20137 26.1635 4.21707 26.1749 4.23325 26.1866C5.325 26.9739 6.7805 27.307 8.11271 27.107C8.15087 27.1007 8.189 27.0943 8.22711 27.0877C8.25851 27.0824 8.25851 27.0824 8.29055 27.0771C9.43541 26.8792 10.4283 26.2805 11.244 25.4718C11.2587 25.4572 11.2735 25.4426 11.2888 25.4275C11.7812 24.9342 12.1604 24.2983 12.4178 23.6544C12.4394 23.6006 12.4618 23.5473 12.4842 23.4939C12.5725 23.2782 12.6359 23.0605 12.6884 22.8335C12.6968 22.7969 12.6968 22.7969 12.7055 22.7596C12.7843 22.3997 12.8194 22.0451 12.8183 21.6777C12.8182 21.6163 12.8189 21.555 12.8196 21.4936C12.8209 21.1992 12.8167 20.8579 12.667 20.5957C11.8068 20.5739 11.0152 20.6843 10.1824 20.8953Z" fill="#2C531C"/>
<path d="M6.80814 9.00036C6.91132 9.00066 7.01449 9.00036 7.11767 9C7.76799 8.99956 8.40954 9.0391 9.05032 9.14236C9.07356 9.14601 9.09679 9.14967 9.12073 9.15344C10.3208 9.34276 10.3208 9.34276 10.5641 9.60069C10.7378 9.83232 10.6487 10.1491 10.6014 10.4124C10.596 10.4433 10.5907 10.4743 10.5852 10.5062C10.5683 10.6038 10.551 10.7014 10.5337 10.799C10.5221 10.8653 10.5107 10.9316 10.4992 10.9979C10.4782 11.1187 10.4572 11.2395 10.4357 11.3603C10.4315 11.3844 10.4272 11.4085 10.4228 11.4333C10.411 11.493 10.3954 11.5519 10.3794 11.6107C10.1884 11.6107 9.99737 11.6107 9.80056 11.6107C9.79051 11.6292 9.78045 11.6476 9.77009 11.6667C9.78749 11.4108 9.82791 11.1615 9.87673 10.9092C9.88368 10.8723 9.89062 10.8355 9.89755 10.7986C9.9485 10.5312 9.9485 10.5312 9.98336 10.4351C9.96219 10.4439 9.94102 10.4527 9.91921 10.4618C8.4204 11.0412 6.30224 10.8874 4.74314 10.6188C4.71135 10.6134 4.67957 10.608 4.64682 10.6024C4.43694 10.5643 4.24129 10.5074 4.04241 10.4351C4.04887 10.4656 4.05533 10.4961 4.06199 10.5275C4.086 10.6411 4.1098 10.7547 4.13353 10.8684C4.14381 10.9175 4.15415 10.9665 4.16456 11.0156C4.17954 11.0863 4.1943 11.1571 4.20902 11.2278C4.21369 11.2496 4.21835 11.2714 4.22316 11.2938C4.24722 11.4106 4.26074 11.5192 4.25567 11.6387C4.23557 11.6294 4.21546 11.6202 4.19474 11.6107C4.15283 11.6084 4.11081 11.6077 4.06883 11.608C4.04428 11.608 4.01974 11.6081 3.99445 11.6082C3.9688 11.6085 3.94316 11.6087 3.91673 11.6089C3.87791 11.6091 3.87791 11.6091 3.83831 11.6093C3.77432 11.6097 3.71033 11.6102 3.64635 11.6107C3.61268 11.442 3.57909 11.2732 3.54556 11.1045C3.53417 11.0473 3.52277 10.99 3.51134 10.9328C3.2892 9.81957 3.2892 9.81957 3.43308 9.62343C3.77731 9.24179 4.61184 9.18586 5.11064 9.11437C5.14081 9.11004 5.17098 9.1057 5.20207 9.10124C5.30285 9.08754 5.40371 9.07531 5.5048 9.06364C5.52587 9.06116 5.54695 9.05868 5.56866 9.05612C5.98203 9.00877 6.39184 8.99893 6.80814 9.00036Z" fill="#473E25"/>
<path d="M4.66663 11C4.77205 11.014 4.87311 11.0342 4.97603 11.0558C6.43693 11.3469 8.3576 11.3677 9.80851 11.0396C9.87225 11.0262 9.9361 11.0131 9.99996 11C9.95872 11.2352 9.90799 11.469 9.84811 11.7021C9.84111 11.7295 9.83425 11.7569 9.82753 11.7844C9.81793 11.8234 9.80772 11.8624 9.7975 11.9013C9.79172 11.9239 9.78594 11.9465 9.77999 11.9698C9.75051 12.0385 9.71238 12.0779 9.6444 12.1299C9.45022 12.1999 9.2152 12.2221 9.00338 12.2513C8.98114 12.2545 8.95889 12.2576 8.93598 12.2609C8.43552 12.3258 7.9292 12.335 7.42218 12.3331C7.39293 12.3331 7.36367 12.333 7.33353 12.333C6.89856 12.332 6.46643 12.3268 6.03415 12.2885C6.01062 12.2865 5.98709 12.2845 5.96285 12.2824C5.72371 12.261 5.4904 12.2285 5.25808 12.182C5.22952 12.1765 5.22952 12.1765 5.20038 12.1709C5.06965 12.1426 4.99812 12.1074 4.91278 12.0308C4.88214 11.9704 4.86733 11.9093 4.85252 11.846C4.84793 11.8281 4.84333 11.8102 4.83859 11.7918C4.82407 11.7348 4.81031 11.6778 4.79654 11.6207C4.7869 11.5827 4.77721 11.5447 4.76748 11.5068C4.72489 11.338 4.68718 11.171 4.66663 11Z" fill="#D49A49"/>
<path d="M3.86895 11.6856C3.92228 11.7511 3.92228 11.7511 3.9751 11.8357C4.34627 12.4194 5.1785 12.4545 5.72567 12.5284C6.07596 12.5723 6.42488 12.589 6.77674 12.5911C6.81179 12.5914 6.81179 12.5914 6.84755 12.5916C6.97178 12.5925 7.09601 12.5931 7.22024 12.5935C7.3203 12.5938 7.42035 12.5947 7.52042 12.596C9.13506 12.6704 9.13506 12.6704 10.5986 12.0113C10.6378 11.9532 10.6759 11.8937 10.7127 11.8332C10.8022 11.691 10.8022 11.691 10.8951 11.6666C11.0283 11.6775 11.0986 11.7139 11.2054 11.8179C11.331 12.0306 11.3502 12.1805 11.3221 12.4419C11.2838 12.6463 11.2016 12.7353 11.0709 12.8469C9.37503 14.0612 6.14445 13.7167 4.31759 13.1515C4.28536 13.1418 4.28536 13.1418 4.25249 13.1318C3.62357 12.9369 3.62357 12.9369 3.43233 12.612C3.36129 12.456 3.32555 12.3232 3.33481 12.1422C3.37626 11.9676 3.47507 11.8451 3.58054 11.7263C3.68605 11.6592 3.75204 11.6636 3.86895 11.6856Z" fill="#D1DAE1"/>
<path d="M6.82449 20.8905C6.86092 20.9009 6.86092 20.9009 6.89808 20.9114C7.11716 20.9738 7.3359 21.0377 7.55439 21.103C7.70259 21.1465 7.8513 21.1874 8 21.2284C7.99076 21.2507 7.98153 21.2729 7.97201 21.2959C7.89287 21.3201 7.89287 21.3201 7.78506 21.3421C7.75559 21.3482 7.75559 21.3482 7.72552 21.3544C7.65964 21.3677 7.59368 21.3804 7.5277 21.393C7.49332 21.3997 7.49332 21.3997 7.45825 21.4064C6.30182 21.6267 5.07018 21.7869 3.9077 21.548C3.8215 21.5307 3.73513 21.516 3.64858 21.5015C2.32278 21.2757 2.32278 21.2757 2.0105 20.9243C1.9965 20.8209 1.9965 20.8209 2.0105 20.7216C2.18732 20.4623 2.59045 20.4618 2.85015 20.4176C2.88079 20.4121 2.88079 20.4121 2.91205 20.4066C4.24534 20.1786 5.53278 20.5232 6.82449 20.8905Z" fill="#468225"/>
<path d="M8.23154 9.70576C8.26617 9.7078 8.26617 9.7078 8.3015 9.70988C8.73627 9.73618 9.16363 9.78787 9.58768 9.87233C9.61234 9.87697 9.637 9.8816 9.6624 9.88637C9.78861 9.91117 9.89245 9.93685 9.99996 9.9998C9.98669 10.0424 9.98669 10.0424 9.94382 10.0925C9.86356 10.1173 9.78982 10.1357 9.70698 10.1519C9.68313 10.1568 9.65928 10.1617 9.6347 10.1667C8.9511 10.3021 8.25706 10.3325 7.55636 10.3316C7.44651 10.3315 7.33667 10.3321 7.22682 10.3326C5.2527 10.3367 5.2527 10.3367 4.66663 10.023C4.67589 10 4.68515 9.97709 4.6947 9.95345C4.75739 9.93032 4.8152 9.91298 4.88066 9.89696C4.90062 9.89202 4.92057 9.88708 4.94113 9.88199C5.99884 9.6324 7.14391 9.6403 8.23154 9.70576Z" fill="#D59E49"/>
<path d="M5.5175 17.1334C5.74118 17.2866 5.90601 17.4242 5.97799 17.6907C6.00801 17.971 6.03126 18.2754 5.87857 18.524C5.66459 18.784 5.45198 18.963 5.1094 18.9996C4.78843 19.0035 4.57556 18.9784 4.3335 18.7614C4.12405 18.543 4.01918 18.3073 4 18.0048C4.01406 17.7092 4.17319 17.4588 4.37133 17.2482C4.68652 16.9708 5.15342 16.9164 5.5175 17.1334Z" fill="#2B521D"/>
<path d="M8.95145 25.0567C9.12483 25.1558 9.26096 25.3109 9.32178 25.4976C9.3472 25.7065 9.33977 25.896 9.20502 26.0666C9.03564 26.244 8.88924 26.3223 8.6395 26.3333C8.45379 26.3289 8.32057 26.2892 8.19062 26.1566C8.02376 25.9521 7.97914 25.7564 8.0083 25.4976C8.06302 25.2954 8.21987 25.1633 8.38775 25.0424C8.56426 24.9851 8.77959 24.9821 8.95145 25.0567Z" fill="#79A72F"/>
<path d="M6.24859 15.034C6.42166 15.1076 6.52597 15.2327 6.62107 15.3891C6.68381 15.5727 6.68557 15.7823 6.60308 15.9604C6.51179 16.1142 6.38139 16.2174 6.22535 16.3056C6.01991 16.3533 5.84277 16.3441 5.65713 16.2418C5.49572 16.1288 5.3806 15.9869 5.34198 15.7947C5.31829 15.5805 5.33811 15.4102 5.46989 15.2331C5.68825 15.0092 5.94258 14.9556 6.24859 15.034Z" fill="#2A501C"/>
<path d="M10.9465 21.7399C11.1109 21.8823 11.2238 22.0493 11.3022 22.3052C11.3544 22.6272 11.348 22.9323 11.2283 23.2194C11.0961 23.4266 10.9493 23.6235 10.7515 23.6658C10.5263 23.6738 10.382 23.6257 10.21 23.4099C10.0272 23.1239 9.99618 22.9024 10.0003 22.5176C10.0237 22.2281 10.1176 22.0607 10.2613 21.8675C10.4705 21.6653 10.7044 21.6028 10.9465 21.7399Z" fill="#A4C539"/>
<path d="M6.22407 24.3577C6.39861 24.4439 6.51427 24.5376 6.61631 24.702C6.69004 24.9204 6.68446 25.1031 6.58907 25.3126C6.49451 25.4796 6.40479 25.5695 6.22407 25.6488C6.00726 25.6823 5.8412 25.673 5.64117 25.5816C5.4575 25.4132 5.34463 25.2532 5.33337 25.0006C5.36063 24.7583 5.43137 24.6317 5.59214 24.4492C5.77914 24.3065 6.00009 24.3218 6.22407 24.3577Z" fill="#A4C538"/>
<path d="M4.36091 22.3921C4.52817 22.5253 4.63189 22.6395 4.6645 22.851C4.67523 23.1111 4.65266 23.2788 4.46383 23.4793C4.28072 23.633 4.1164 23.6695 3.87201 23.6665C3.68214 23.6415 3.55541 23.5329 3.42867 23.4028C3.30019 23.2013 3.32602 22.962 3.36595 22.7363C3.46327 22.5676 3.58186 22.4211 3.77712 22.3566C3.98665 22.3255 4.16506 22.3155 4.36091 22.3921Z" fill="#84AF31"/>
<path d="M7.1166 19.0065C7.19919 19.0523 7.25487 19.0911 7.31108 19.1702C7.34308 19.2898 7.34204 19.3912 7.2979 19.5065C7.21296 19.6153 7.12799 19.6493 6.99792 19.6667C6.86117 19.6484 6.78514 19.5885 6.6963 19.4783C6.65727 19.3704 6.65676 19.2844 6.69465 19.1755C6.81075 19.0288 6.94049 18.981 7.1166 19.0065Z" fill="#294D1C"/>
</svg>
